<mxfile host="www.draw.io" modified="2024-05-14T23:17:11.347Z" agent="Mozilla/5.0 (Windows NT 10.0; Win64; x64) AppleWebKit/537.36 (KHTML, like Gecko) Chrome/124.0.0.0 Safari/537.36" etag="5jeWUzt1iHV-fdWgkFzK" version="24.4.0" type="device">
  <diagram name="Page-1" id="SkiD1veTYQkA2GfiZyOJ">
    <mxGraphModel dx="3592" dy="998" grid="1" gridSize="10" guides="1" tooltips="1" connect="1" arrows="1" fold="1" page="1" pageScale="1" pageWidth="827" pageHeight="1169" math="0" shadow="0">
      <root>
        <mxCell id="0" />
        <mxCell id="1" parent="0" />
        <mxCell id="Aj4SEs11_BFHthxMdSN--43" style="edgeStyle=orthogonalEdgeStyle;rounded=0;orthogonalLoop=1;jettySize=auto;html=1;exitX=1;exitY=0.5;exitDx=0;exitDy=0;entryX=0;entryY=0.5;entryDx=0;entryDy=0;strokeWidth=2;" parent="1" source="Aj4SEs11_BFHthxMdSN--2" target="Aj4SEs11_BFHthxMdSN--5" edge="1">
          <mxGeometry relative="1" as="geometry" />
        </mxCell>
        <mxCell id="Aj4SEs11_BFHthxMdSN--2" value="binary_to_hex_transfer_module" style="rounded=1;whiteSpace=wrap;html=1;fontSize=16;fontStyle=1;strokeWidth=2;" parent="1" vertex="1">
          <mxGeometry x="-1039.9999999999998" y="640" width="260.32" height="30" as="geometry" />
        </mxCell>
        <mxCell id="Aj4SEs11_BFHthxMdSN--77" style="edgeStyle=orthogonalEdgeStyle;rounded=0;orthogonalLoop=1;jettySize=auto;html=1;exitX=0.5;exitY=1;exitDx=0;exitDy=0;entryX=0.5;entryY=0;entryDx=0;entryDy=0;strokeWidth=2;" parent="1" source="Aj4SEs11_BFHthxMdSN--9" target="Aj4SEs11_BFHthxMdSN--13" edge="1">
          <mxGeometry relative="1" as="geometry">
            <Array as="points">
              <mxPoint x="-183" y="980" />
              <mxPoint x="-370" y="980" />
            </Array>
          </mxGeometry>
        </mxCell>
        <mxCell id="Aj4SEs11_BFHthxMdSN--9" value="db_update_module" style="rounded=1;whiteSpace=wrap;html=1;fontSize=16;fontStyle=1;strokeWidth=2;" parent="1" vertex="1">
          <mxGeometry x="-294.97" y="890" width="223.94" height="40" as="geometry" />
        </mxCell>
        <mxCell id="Aj4SEs11_BFHthxMdSN--30" style="edgeStyle=orthogonalEdgeStyle;rounded=0;orthogonalLoop=1;jettySize=auto;html=1;entryX=1;entryY=0.5;entryDx=0;entryDy=0;fontSize=16;fontStyle=1;strokeWidth=2;" parent="1" source="Aj4SEs11_BFHthxMdSN--11" target="Aj4SEs11_BFHthxMdSN--31" edge="1">
          <mxGeometry relative="1" as="geometry">
            <mxPoint x="-591.2599999999998" y="450" as="targetPoint" />
          </mxGeometry>
        </mxCell>
        <mxCell id="Aj4SEs11_BFHthxMdSN--32" style="edgeStyle=orthogonalEdgeStyle;rounded=0;orthogonalLoop=1;jettySize=auto;html=1;exitX=0.5;exitY=1;exitDx=0;exitDy=0;entryX=0.5;entryY=0;entryDx=0;entryDy=0;fontSize=16;fontStyle=1;strokeWidth=2;" parent="1" source="Aj4SEs11_BFHthxMdSN--11" edge="1">
          <mxGeometry relative="1" as="geometry">
            <mxPoint x="-561.26" y="530" as="targetPoint" />
          </mxGeometry>
        </mxCell>
        <mxCell id="Aj4SEs11_BFHthxMdSN--60" style="edgeStyle=orthogonalEdgeStyle;rounded=0;orthogonalLoop=1;jettySize=auto;html=1;exitX=0.5;exitY=1;exitDx=0;exitDy=0;entryX=0.5;entryY=0;entryDx=0;entryDy=0;strokeWidth=2;" parent="1" source="Aj4SEs11_BFHthxMdSN--11" edge="1">
          <mxGeometry relative="1" as="geometry">
            <mxPoint x="-164.26" y="530" as="targetPoint" />
          </mxGeometry>
        </mxCell>
        <mxCell id="Aj4SEs11_BFHthxMdSN--11" value="file_existence_check_module" style="rounded=1;whiteSpace=wrap;html=1;fontSize=16;fontStyle=1;strokeWidth=2;" parent="1" vertex="1">
          <mxGeometry x="-519.26" y="410" width="248" height="40" as="geometry" />
        </mxCell>
        <mxCell id="Aj4SEs11_BFHthxMdSN--13" value="file_delete_module" style="rounded=1;whiteSpace=wrap;html=1;fontSize=16;fontStyle=1;strokeWidth=2;" parent="1" vertex="1">
          <mxGeometry x="-460" y="1020" width="180" height="50" as="geometry" />
        </mxCell>
        <mxCell id="Aj4SEs11_BFHthxMdSN--42" style="edgeStyle=orthogonalEdgeStyle;rounded=0;orthogonalLoop=1;jettySize=auto;html=1;exitX=1;exitY=0.5;exitDx=0;exitDy=0;entryX=0;entryY=0.5;entryDx=0;entryDy=0;strokeWidth=2;" parent="1" source="Aj4SEs11_BFHthxMdSN--14" target="Aj4SEs11_BFHthxMdSN--40" edge="1">
          <mxGeometry relative="1" as="geometry" />
        </mxCell>
        <mxCell id="Aj4SEs11_BFHthxMdSN--14" value="PKCS7Padding" style="rounded=1;whiteSpace=wrap;html=1;fontSize=16;fontStyle=1;strokeWidth=2;" parent="1" vertex="1">
          <mxGeometry x="-900" y="795" width="146.25" height="30" as="geometry" />
        </mxCell>
        <mxCell id="Aj4SEs11_BFHthxMdSN--71" style="edgeStyle=orthogonalEdgeStyle;rounded=0;orthogonalLoop=1;jettySize=auto;html=1;exitX=0;exitY=0.5;exitDx=0;exitDy=0;entryX=1;entryY=0.5;entryDx=0;entryDy=0;strokeWidth=2;" parent="1" source="Aj4SEs11_BFHthxMdSN--15" target="Aj4SEs11_BFHthxMdSN--67" edge="1">
          <mxGeometry relative="1" as="geometry" />
        </mxCell>
        <mxCell id="Aj4SEs11_BFHthxMdSN--15" value="PKCS7Cutting" style="rounded=1;whiteSpace=wrap;html=1;fontSize=16;fontStyle=1;strokeWidth=2;" parent="1" vertex="1">
          <mxGeometry x="10" y="670" width="139.06" height="45" as="geometry" />
        </mxCell>
        <mxCell id="Aj4SEs11_BFHthxMdSN--23" value="" style="edgeStyle=orthogonalEdgeStyle;rounded=0;orthogonalLoop=1;jettySize=auto;html=1;fontSize=16;fontStyle=1;strokeWidth=2;" parent="1" source="Aj4SEs11_BFHthxMdSN--20" target="Aj4SEs11_BFHthxMdSN--22" edge="1">
          <mxGeometry relative="1" as="geometry" />
        </mxCell>
        <mxCell id="Aj4SEs11_BFHthxMdSN--20" value="file_process_module" style="rounded=1;whiteSpace=wrap;html=1;fontSize=16;fontStyle=1;strokeWidth=2;" parent="1" vertex="1">
          <mxGeometry x="-481.01" y="300" width="171.5" height="30" as="geometry" />
        </mxCell>
        <mxCell id="Aj4SEs11_BFHthxMdSN--29" value="" style="edgeStyle=orthogonalEdgeStyle;rounded=0;orthogonalLoop=1;jettySize=auto;html=1;fontSize=16;fontStyle=1;strokeWidth=2;" parent="1" source="Aj4SEs11_BFHthxMdSN--22" target="Aj4SEs11_BFHthxMdSN--11" edge="1">
          <mxGeometry relative="1" as="geometry" />
        </mxCell>
        <mxCell id="Aj4SEs11_BFHthxMdSN--22" value="system_time_module" style="rounded=1;whiteSpace=wrap;html=1;fontSize=16;fontStyle=1;strokeWidth=2;" parent="1" vertex="1">
          <mxGeometry x="-505.26" y="360" width="220" height="27" as="geometry" />
        </mxCell>
        <mxCell id="Aj4SEs11_BFHthxMdSN--78" style="edgeStyle=orthogonalEdgeStyle;rounded=0;orthogonalLoop=1;jettySize=auto;html=1;exitX=0.5;exitY=1;exitDx=0;exitDy=0;entryX=0.5;entryY=0;entryDx=0;entryDy=0;strokeWidth=2;" parent="1" source="Aj4SEs11_BFHthxMdSN--26" target="Aj4SEs11_BFHthxMdSN--13" edge="1">
          <mxGeometry relative="1" as="geometry">
            <Array as="points">
              <mxPoint x="-580" y="980" />
              <mxPoint x="-370" y="980" />
            </Array>
          </mxGeometry>
        </mxCell>
        <mxCell id="Aj4SEs11_BFHthxMdSN--26" value="" style="swimlane;startSize=0;fontSize=16;fontStyle=1;strokeWidth=2;" parent="1" vertex="1">
          <mxGeometry x="-730" y="530" width="300" height="420" as="geometry" />
        </mxCell>
        <mxCell id="Aj4SEs11_BFHthxMdSN--35" value="" style="edgeStyle=orthogonalEdgeStyle;rounded=0;orthogonalLoop=1;jettySize=auto;html=1;strokeWidth=2;" parent="Aj4SEs11_BFHthxMdSN--26" source="Aj4SEs11_BFHthxMdSN--4" target="Aj4SEs11_BFHthxMdSN--5" edge="1">
          <mxGeometry relative="1" as="geometry" />
        </mxCell>
        <mxCell id="Aj4SEs11_BFHthxMdSN--4" value="key_iv_generation_module" style="rounded=1;whiteSpace=wrap;html=1;fontSize=16;fontStyle=1;strokeWidth=2;" parent="Aj4SEs11_BFHthxMdSN--26" vertex="1">
          <mxGeometry x="30.14" y="40" width="239.87" height="42.5" as="geometry" />
        </mxCell>
        <mxCell id="Aj4SEs11_BFHthxMdSN--39" value="" style="edgeStyle=orthogonalEdgeStyle;rounded=0;orthogonalLoop=1;jettySize=auto;html=1;strokeWidth=2;" parent="Aj4SEs11_BFHthxMdSN--26" source="Aj4SEs11_BFHthxMdSN--5" target="Aj4SEs11_BFHthxMdSN--7" edge="1">
          <mxGeometry relative="1" as="geometry" />
        </mxCell>
        <mxCell id="Aj4SEs11_BFHthxMdSN--5" value="key_iv_storage_module" style="rounded=1;whiteSpace=wrap;html=1;fontSize=16;fontStyle=1;strokeWidth=2;" parent="Aj4SEs11_BFHthxMdSN--26" vertex="1">
          <mxGeometry x="30.01" y="120" width="240" height="40" as="geometry" />
        </mxCell>
        <mxCell id="Aj4SEs11_BFHthxMdSN--34" value="File_Encryption_Module" style="text;html=1;align=center;verticalAlign=middle;resizable=0;points=[];autosize=1;strokeColor=none;fillColor=none;fontSize=16;fontStyle=1;strokeWidth=2;" parent="Aj4SEs11_BFHthxMdSN--26" vertex="1">
          <mxGeometry x="55.07999999999999" y="10" width="190" height="30" as="geometry" />
        </mxCell>
        <mxCell id="Aj4SEs11_BFHthxMdSN--41" value="" style="edgeStyle=orthogonalEdgeStyle;rounded=0;orthogonalLoop=1;jettySize=auto;html=1;strokeWidth=2;" parent="Aj4SEs11_BFHthxMdSN--26" source="Aj4SEs11_BFHthxMdSN--7" target="Aj4SEs11_BFHthxMdSN--40" edge="1">
          <mxGeometry relative="1" as="geometry" />
        </mxCell>
        <mxCell id="Aj4SEs11_BFHthxMdSN--7" value="source_file_reading module" style="rounded=1;whiteSpace=wrap;html=1;fontSize=16;fontStyle=1;strokeWidth=2;" parent="Aj4SEs11_BFHthxMdSN--26" vertex="1">
          <mxGeometry x="30.14" y="190" width="239.86" height="40" as="geometry" />
        </mxCell>
        <mxCell id="Aj4SEs11_BFHthxMdSN--44" value="" style="edgeStyle=orthogonalEdgeStyle;rounded=0;orthogonalLoop=1;jettySize=auto;html=1;strokeWidth=2;" parent="Aj4SEs11_BFHthxMdSN--26" source="Aj4SEs11_BFHthxMdSN--40" target="Aj4SEs11_BFHthxMdSN--10" edge="1">
          <mxGeometry relative="1" as="geometry" />
        </mxCell>
        <mxCell id="Aj4SEs11_BFHthxMdSN--40" value="AES-CBC-Encrypt-Module" style="rounded=1;whiteSpace=wrap;html=1;fontSize=16;fontStyle=1;strokeWidth=2;" parent="Aj4SEs11_BFHthxMdSN--26" vertex="1">
          <mxGeometry x="30.149999999999977" y="260" width="239.86" height="40" as="geometry" />
        </mxCell>
        <mxCell id="Aj4SEs11_BFHthxMdSN--10" value="dest_file_writing_module" style="rounded=1;whiteSpace=wrap;html=1;fontSize=16;fontStyle=1;strokeWidth=2;" parent="Aj4SEs11_BFHthxMdSN--26" vertex="1">
          <mxGeometry x="45" y="340" width="210" height="40" as="geometry" />
        </mxCell>
        <mxCell id="Aj4SEs11_BFHthxMdSN--31" value="Error Handling, input file again (Only stop current file process without affecting other on going operation with in independent thread)" style="rounded=1;whiteSpace=wrap;html=1;fontSize=16;fontStyle=1;strokeWidth=2;" parent="1" vertex="1">
          <mxGeometry x="-970.01" y="380" width="277" height="100" as="geometry" />
        </mxCell>
        <mxCell id="Aj4SEs11_BFHthxMdSN--36" value="&lt;b&gt;&lt;font style=&quot;font-size: 16px;&quot;&gt;File Exists == false&lt;/font&gt;&lt;/b&gt;" style="text;html=1;align=center;verticalAlign=middle;resizable=0;points=[];autosize=1;strokeColor=none;fillColor=none;strokeWidth=2;" parent="1" vertex="1">
          <mxGeometry x="-698.01" y="400" width="170" height="30" as="geometry" />
        </mxCell>
        <mxCell id="Aj4SEs11_BFHthxMdSN--37" value="&lt;b&gt;&lt;font style=&quot;font-size: 16px;&quot;&gt;File Exists == true&lt;/font&gt;&lt;/b&gt;" style="text;html=1;align=center;verticalAlign=middle;resizable=0;points=[];autosize=1;strokeColor=none;fillColor=none;strokeWidth=2;" parent="1" vertex="1">
          <mxGeometry x="-461.26" y="488" width="160" height="30" as="geometry" />
        </mxCell>
        <mxCell id="Aj4SEs11_BFHthxMdSN--46" value="Error handling, stop the process to avoid the resource occupancy, while other thread kept operating" style="rounded=1;whiteSpace=wrap;html=1;fontSize=16;fontStyle=1;strokeWidth=2;" parent="1" vertex="1">
          <mxGeometry x="-1073.75" y="556.88" width="280" height="68.75" as="geometry" />
        </mxCell>
        <mxCell id="Aj4SEs11_BFHthxMdSN--45" style="edgeStyle=orthogonalEdgeStyle;rounded=0;orthogonalLoop=1;jettySize=auto;html=1;exitX=0;exitY=0.5;exitDx=0;exitDy=0;entryX=1;entryY=0.5;entryDx=0;entryDy=0;strokeWidth=2;" parent="1" source="Aj4SEs11_BFHthxMdSN--4" target="Aj4SEs11_BFHthxMdSN--46" edge="1">
          <mxGeometry relative="1" as="geometry">
            <mxPoint x="-830" y="600" as="targetPoint" />
          </mxGeometry>
        </mxCell>
        <mxCell id="Aj4SEs11_BFHthxMdSN--72" style="edgeStyle=orthogonalEdgeStyle;rounded=0;orthogonalLoop=1;jettySize=auto;html=1;exitX=0.5;exitY=1;exitDx=0;exitDy=0;entryX=0.5;entryY=0;entryDx=0;entryDy=0;strokeWidth=2;" parent="1" source="Aj4SEs11_BFHthxMdSN--47" target="Aj4SEs11_BFHthxMdSN--9" edge="1">
          <mxGeometry relative="1" as="geometry" />
        </mxCell>
        <mxCell id="Aj4SEs11_BFHthxMdSN--47" value="" style="swimlane;startSize=0;fontSize=16;fontStyle=1;strokeWidth=2;" parent="1" vertex="1">
          <mxGeometry x="-333" y="530" width="300" height="340" as="geometry" />
        </mxCell>
        <mxCell id="Aj4SEs11_BFHthxMdSN--48" value="" style="edgeStyle=orthogonalEdgeStyle;rounded=0;orthogonalLoop=1;jettySize=auto;html=1;" parent="Aj4SEs11_BFHthxMdSN--47" edge="1">
          <mxGeometry relative="1" as="geometry">
            <mxPoint x="150" y="82.5" as="sourcePoint" />
          </mxGeometry>
        </mxCell>
        <mxCell id="Aj4SEs11_BFHthxMdSN--50" value="" style="edgeStyle=orthogonalEdgeStyle;rounded=0;orthogonalLoop=1;jettySize=auto;html=1;" parent="Aj4SEs11_BFHthxMdSN--47" edge="1">
          <mxGeometry relative="1" as="geometry">
            <mxPoint x="150" y="160" as="sourcePoint" />
          </mxGeometry>
        </mxCell>
        <mxCell id="Aj4SEs11_BFHthxMdSN--52" value="File_Decryption_Module" style="text;html=1;align=center;verticalAlign=middle;resizable=0;points=[];autosize=1;strokeColor=none;fillColor=none;fontSize=16;fontStyle=1;strokeWidth=2;" parent="Aj4SEs11_BFHthxMdSN--47" vertex="1">
          <mxGeometry x="55.00999999999999" y="10" width="190" height="30" as="geometry" />
        </mxCell>
        <mxCell id="Aj4SEs11_BFHthxMdSN--53" value="" style="edgeStyle=orthogonalEdgeStyle;rounded=0;orthogonalLoop=1;jettySize=auto;html=1;" parent="Aj4SEs11_BFHthxMdSN--47" edge="1">
          <mxGeometry relative="1" as="geometry">
            <mxPoint x="150" y="230" as="sourcePoint" />
          </mxGeometry>
        </mxCell>
        <mxCell id="Aj4SEs11_BFHthxMdSN--55" value="" style="edgeStyle=orthogonalEdgeStyle;rounded=0;orthogonalLoop=1;jettySize=auto;html=1;" parent="Aj4SEs11_BFHthxMdSN--47" edge="1">
          <mxGeometry relative="1" as="geometry">
            <mxPoint x="150.0999999999999" y="300" as="sourcePoint" />
          </mxGeometry>
        </mxCell>
        <mxCell id="Aj4SEs11_BFHthxMdSN--66" value="" style="edgeStyle=orthogonalEdgeStyle;rounded=0;orthogonalLoop=1;jettySize=auto;html=1;strokeWidth=2;" parent="Aj4SEs11_BFHthxMdSN--47" source="Aj4SEs11_BFHthxMdSN--61" target="Aj4SEs11_BFHthxMdSN--65" edge="1">
          <mxGeometry relative="1" as="geometry" />
        </mxCell>
        <mxCell id="Aj4SEs11_BFHthxMdSN--61" value="key_iv_loading_module" style="rounded=1;whiteSpace=wrap;html=1;fontSize=16;fontStyle=1;strokeWidth=2;" parent="Aj4SEs11_BFHthxMdSN--47" vertex="1">
          <mxGeometry x="49" y="55" width="201.99" height="35" as="geometry" />
        </mxCell>
        <mxCell id="Aj4SEs11_BFHthxMdSN--68" value="" style="edgeStyle=orthogonalEdgeStyle;rounded=0;orthogonalLoop=1;jettySize=auto;html=1;strokeWidth=2;" parent="Aj4SEs11_BFHthxMdSN--47" source="Aj4SEs11_BFHthxMdSN--65" target="Aj4SEs11_BFHthxMdSN--67" edge="1">
          <mxGeometry relative="1" as="geometry" />
        </mxCell>
        <mxCell id="Aj4SEs11_BFHthxMdSN--65" value="source_file_reading module" style="rounded=1;whiteSpace=wrap;html=1;fontSize=16;fontStyle=1;strokeWidth=2;" parent="Aj4SEs11_BFHthxMdSN--47" vertex="1">
          <mxGeometry x="30.060000000000002" y="120" width="239.86" height="40" as="geometry" />
        </mxCell>
        <mxCell id="Aj4SEs11_BFHthxMdSN--70" value="" style="edgeStyle=orthogonalEdgeStyle;rounded=0;orthogonalLoop=1;jettySize=auto;html=1;strokeWidth=2;" parent="Aj4SEs11_BFHthxMdSN--47" source="Aj4SEs11_BFHthxMdSN--67" target="Aj4SEs11_BFHthxMdSN--69" edge="1">
          <mxGeometry relative="1" as="geometry" />
        </mxCell>
        <mxCell id="Aj4SEs11_BFHthxMdSN--67" value="AES-CBC-Encrypt-Module(Used in Reversed)" style="rounded=1;whiteSpace=wrap;html=1;fontSize=16;fontStyle=1;strokeWidth=2;" parent="Aj4SEs11_BFHthxMdSN--47" vertex="1">
          <mxGeometry x="30.079999999999984" y="210" width="239.86" height="40" as="geometry" />
        </mxCell>
        <mxCell id="Aj4SEs11_BFHthxMdSN--69" value="dest_file_writing_module" style="rounded=1;whiteSpace=wrap;html=1;fontSize=16;fontStyle=1;strokeWidth=2;" parent="Aj4SEs11_BFHthxMdSN--47" vertex="1">
          <mxGeometry x="44.99000000000001" y="280" width="210" height="40" as="geometry" />
        </mxCell>
        <mxCell id="KOfjlDBCZBLj7wfUFF8J-6" style="edgeStyle=orthogonalEdgeStyle;rounded=0;orthogonalLoop=1;jettySize=auto;html=1;exitX=0.5;exitY=1;exitDx=0;exitDy=0;entryX=1;entryY=0.5;entryDx=0;entryDy=0;strokeWidth=2;" edge="1" parent="1" source="Aj4SEs11_BFHthxMdSN--62" target="Aj4SEs11_BFHthxMdSN--61">
          <mxGeometry relative="1" as="geometry" />
        </mxCell>
        <mxCell id="Aj4SEs11_BFHthxMdSN--62" value="hex_to_binary_module" style="rounded=1;whiteSpace=wrap;html=1;fontSize=16;fontStyle=1;strokeWidth=2;" parent="1" vertex="1">
          <mxGeometry x="-111.26000000000006" y="470" width="260.32" height="30" as="geometry" />
        </mxCell>
        <mxCell id="Aj4SEs11_BFHthxMdSN--74" value="db_update_module" style="rounded=1;whiteSpace=wrap;html=1;fontSize=16;fontStyle=1;strokeWidth=2;" parent="1" vertex="1">
          <mxGeometry x="-979.21" y="700" width="185.46" height="30" as="geometry" />
        </mxCell>
        <mxCell id="Aj4SEs11_BFHthxMdSN--76" style="edgeStyle=orthogonalEdgeStyle;rounded=0;orthogonalLoop=1;jettySize=auto;html=1;exitX=0;exitY=1;exitDx=0;exitDy=0;entryX=1;entryY=0.5;entryDx=0;entryDy=0;strokeWidth=2;" parent="1" source="Aj4SEs11_BFHthxMdSN--5" target="Aj4SEs11_BFHthxMdSN--74" edge="1">
          <mxGeometry relative="1" as="geometry" />
        </mxCell>
        <mxCell id="KOfjlDBCZBLj7wfUFF8J-2" style="edgeStyle=orthogonalEdgeStyle;rounded=0;orthogonalLoop=1;jettySize=auto;html=1;exitX=0.5;exitY=1;exitDx=0;exitDy=0;entryX=0.5;entryY=0;entryDx=0;entryDy=0;strokeWidth=2;" edge="1" parent="1" source="KOfjlDBCZBLj7wfUFF8J-1" target="Aj4SEs11_BFHthxMdSN--20">
          <mxGeometry relative="1" as="geometry" />
        </mxCell>
        <mxCell id="KOfjlDBCZBLj7wfUFF8J-3" style="edgeStyle=orthogonalEdgeStyle;rounded=0;orthogonalLoop=1;jettySize=auto;html=1;exitX=0;exitY=0.5;exitDx=0;exitDy=0;entryX=0;entryY=0.75;entryDx=0;entryDy=0;strokeWidth=2;" edge="1" parent="1" source="KOfjlDBCZBLj7wfUFF8J-1" target="Aj4SEs11_BFHthxMdSN--40">
          <mxGeometry relative="1" as="geometry">
            <Array as="points">
              <mxPoint x="-1080" y="190" />
              <mxPoint x="-1080" y="870" />
              <mxPoint x="-700" y="870" />
            </Array>
          </mxGeometry>
        </mxCell>
        <mxCell id="KOfjlDBCZBLj7wfUFF8J-5" style="edgeStyle=orthogonalEdgeStyle;rounded=0;orthogonalLoop=1;jettySize=auto;html=1;exitX=1;exitY=0.5;exitDx=0;exitDy=0;entryX=1;entryY=1;entryDx=0;entryDy=0;strokeWidth=2;" edge="1" parent="1" source="KOfjlDBCZBLj7wfUFF8J-1" target="Aj4SEs11_BFHthxMdSN--67">
          <mxGeometry relative="1" as="geometry">
            <Array as="points">
              <mxPoint x="280" y="190" />
              <mxPoint x="280" y="800" />
              <mxPoint x="-63" y="800" />
            </Array>
          </mxGeometry>
        </mxCell>
        <mxCell id="KOfjlDBCZBLj7wfUFF8J-7" style="edgeStyle=orthogonalEdgeStyle;rounded=0;orthogonalLoop=1;jettySize=auto;html=1;exitX=1;exitY=0.75;exitDx=0;exitDy=0;entryX=1;entryY=0.5;entryDx=0;entryDy=0;strokeWidth=2;" edge="1" parent="1" source="KOfjlDBCZBLj7wfUFF8J-1" target="Aj4SEs11_BFHthxMdSN--22">
          <mxGeometry relative="1" as="geometry" />
        </mxCell>
        <mxCell id="KOfjlDBCZBLj7wfUFF8J-1" value="System On Call Module&lt;div&gt;&lt;span style=&quot;font-weight: normal;&quot;&gt;I/O Handling,&amp;nbsp;&lt;/span&gt;&lt;span style=&quot;font-weight: normal; background-color: initial;&quot;&gt;Functions Calls,&amp;nbsp;&lt;/span&gt;&lt;span style=&quot;font-weight: normal; background-color: initial;&quot;&gt;Library Usage, system time calculation&lt;/span&gt;&lt;/div&gt;&lt;div&gt;&lt;span style=&quot;font-weight: normal; background-color: initial;&quot;&gt;program runtime calculation&lt;/span&gt;&lt;/div&gt;" style="rounded=1;whiteSpace=wrap;html=1;fontSize=16;fontStyle=1;strokeWidth=2;" vertex="1" parent="1">
          <mxGeometry x="-641.26" y="140" width="490" height="100" as="geometry" />
        </mxCell>
      </root>
    </mxGraphModel>
  </diagram>
</mxfile>
